<?xml version="1.0" encoding="UTF-8"?>
<svg id="Layer_1" data-name="Layer 1" xmlns="http://www.w3.org/2000/svg" viewBox="0 0 1490.79 445.11">
  <g>
    <circle cx="216.96" cy="168.46" r="58.56" fill="#fff"/>
    <line x1="295.34" y1="42.81" x2="139.6" y2="49.94" fill="none" stroke="#fff" stroke-miterlimit="10" stroke-width="10"/>
    <line x1="39.81" y1="157.96" x2="136.6" y2="45.94" fill="none" stroke="#fff" stroke-miterlimit="10" stroke-width="10"/>
    <line x1="292.01" y1="305.45" x2="115.07" y2="300.34" fill="none" stroke="#fff" stroke-miterlimit="10" stroke-width="10"/>
    <line x1="291.99" y1="305.42" x2="216.96" y2="168.45" fill="none" stroke="#fff" stroke-miterlimit="10" stroke-width="10"/>
    <line x1="217.47" y1="169.38" x2="295.06" y2="42.81" fill="none" stroke="#fff" stroke-miterlimit="10" stroke-width="10"/>
    <line x1="137.57" y1="50.13" x2="217.47" y2="169.38" fill="none" stroke="#fff" stroke-miterlimit="10" stroke-width="10"/>
    <line x1="42.81" y1="161.96" x2="218.09" y2="168.36" fill="none" stroke="#fff" stroke-miterlimit="10" stroke-width="10"/>
    <line x1="113.23" y1="300.34" x2="217.47" y2="169.38" fill="none" stroke="#fff" stroke-miterlimit="10" stroke-width="10"/>
    <line x1="115.06" y1="300.34" x2="42.81" y2="161.96" fill="none" stroke="#fff" stroke-miterlimit="10" stroke-width="10"/>
  </g>
  <g>
    <circle cx="295.34" cy="42.81" r="42.81" fill="#e36650"/>
    <circle cx="42.81" cy="161.96" r="42.81" fill="#ff944e"/>
    <circle cx="292" cy="305.45" r="43.4" fill="#9e68db"/>
    <circle cx="113.23" cy="300.34" r="60.77" fill="#4b92f2"/>
    <circle cx="137.57" cy="50.13" r="29.49" fill="#06b7a9"/>
  </g>
  <g>
    <rect x="130.45" y="78.98" width="1360.34" height="366.13" fill="none"/>
    <path d="M416.08,298.58v-155.27h35.45l4.25,32.81v122.46h-39.7ZM507.93,298.58v-91.26c0-9.38-1.93-16.6-5.79-21.68-3.86-5.08-9.35-7.62-16.48-7.62-19.92,0-29.88,14.36-29.88,43.07l-9.08-49.66h12.89c1.46-10.45,5.03-18.24,10.69-23.36,5.66-5.13,14.26-7.69,25.78-7.69,16.41,0,29.1,4.98,38.09,14.94,8.98,9.96,13.48,24.02,13.48,42.19v101.07h-39.7Z" fill="#fff"/>
    <path d="M622.21,301.51c-16.5,0-29.35-4.05-38.53-12.16-9.18-8.1-13.77-19.63-13.77-34.57,0-17.38,6.01-30.71,18.02-39.99,12.01-9.28,29.05-13.92,51.12-13.92,8.5,0,15.84.44,22.05,1.32,6.2.88,12.47,2.25,18.82,4.1l-6.45,30.91c-6.25-1.46-11.87-2.32-16.85-2.56-4.98-.24-10.21-.37-15.67-.37-20.51,0-30.76,5.86-30.76,17.58,0,5.27,1.85,9.3,5.57,12.08,3.71,2.78,9.13,4.17,16.26,4.17,8.59,0,15.77-1.61,21.53-4.83,5.76-3.22,10.08-7.32,12.96-12.3,2.88-4.98,4.32-10.11,4.32-15.38v-9.67l5.57,39.84h-12.45l5.13-4.69c-.29,8.99-2.34,16.48-6.15,22.49s-9.16,10.5-16.04,13.48-15.11,4.47-24.68,4.47ZM674.8,300.04l-3.37-46-.59-20.21v-30.32c0-8.3-3.54-14.38-10.62-18.24-7.08-3.86-17.6-5.98-31.57-6.37l-39.7-1.03,2.93-36.03,33.84.44c28.12.39,49.02,5.93,62.7,16.63,13.67,10.69,20.51,26.29,20.51,46.8v57.42l21.53,3.22v32.23l-55.66,1.46Z" fill="#fff"/>
    <path d="M730.49,179.78v-36.47h145.61v36.47h-145.61ZM767.7,222.84v-126.42h39.55v126.42h-39.55ZM843.58,301.51c-26.76,0-46.09-5.37-58.01-16.11-11.92-10.74-17.87-27.93-17.87-51.56v-20.21h39.55v16.41c0,11.82,3.05,20.41,9.16,25.78,6.1,5.37,16.14,8.06,30.1,8.06,4.49,0,9.3-.27,14.43-.81,5.13-.54,10.96-1.25,17.5-2.12l3.52,37.06c-6.45,1.17-12.72,2.05-18.82,2.64-6.1.59-12.62.88-19.56.88Z" fill="#fff"/>
    <path d="M908.06,298.58v-36.62h60.35v36.62h-60.35ZM916.84,179.92v-36.62h88.18v36.62h-88.18ZM983.49,122.36c-7.52,0-13.62-2.34-18.31-7.03s-7.03-10.79-7.03-18.31,2.34-13.62,7.03-18.31,10.79-7.03,18.31-7.03,13.62,2.34,18.31,7.03,7.03,10.79,7.03,18.31-2.34,13.62-7.03,18.31-10.79,7.03-18.31,7.03ZM965.48,298.58v-146.48h39.55v146.48h-39.55ZM1002.1,298.58v-36.62h48.93v36.62h-48.93Z" fill="#fff"/>
    <path d="M1122.53,301.51c-18.85,0-33.47-6.81-43.87-20.43s-15.6-33.18-15.6-58.67,5.22-46.26,15.67-60.57c10.45-14.31,25.14-21.46,44.09-21.46,11.81,0,20.78,2.56,26.88,7.69,6.1,5.13,10.08,12.92,11.94,23.36h12.89l-9.08,47.46c0-13.87-2.61-24.19-7.84-30.98-5.23-6.79-13.01-10.18-23.36-10.18-9.77,0-17.31,3.88-22.63,11.65-5.32,7.76-7.98,18.78-7.98,33.03s2.59,24.29,7.76,31.27c5.17,6.98,12.79,10.47,22.85,10.47s18.26-3.03,23.44-9.08c5.17-6.05,7.76-15.09,7.76-27.1v-8.35l10.55,54.93h-14.36c-1.66,8.89-5.84,15.6-12.52,20.14-6.69,4.54-15.55,6.81-26.59,6.81ZM1165.45,365.96v-189.84l2.93-32.81h36.77v222.66h-39.7Z" fill="#fff"/>
  </g>
</svg>