<?xml version="1.0" encoding="UTF-8"?>
<svg id="Layer_1" data-name="Layer 1" xmlns="http://www.w3.org/2000/svg" viewBox="0 0 1431.02 373.12">
  <path d="M.28,68.09c.45-5.14,2.33-12.63,3.74-17.76C9.13,31.74,19.83,15.62,30.77.1c15.13,27.16,30.9,53.26,50.52,77.47,37.85,46.73,80.24,74.43,122.97,114.01,47.1,43.63,87.41,106.1,56.48,171.51-6-10.16-11.96-20.3-19.99-29.01-48.39-52.52-111.34-96.66-164.5-144.47C46.48,162.83,4.34,125.11.28,83.09c-.39-4.03-.35-10.95,0-15Z"/>
  <path d="M434.2,62.09c28.67,1.4,59.06-1.85,87.53-.04,65.45,4.16,93.19,70.09,40.14,111.24l-16.68,7.8c18.23,3.07,25.33,21.05,31.01,36.49,6.04,16.43,9.88,32.6,17.1,48.9,1.84,4.16,5.94,7.3,4.88,12.62h-33.99c-.92-3.85-3.23-7.12-4.76-10.73-8.99-21.2-18.5-76.27-48.73-76.27h-43.49v87h-32.99V62.09ZM467.19,164.09h56.49c5.37,0,18.01-6.99,22.03-10.97,13.15-13.03,14.66-41.72-.06-54.01-6.6-5.51-20.49-10.03-28.97-10.03h-49.49v75Z"/>
  <path d="M1170.07,279.09l79.07-215.41c.72-1.54,1.92-1.48,3.36-1.64,11.46-1.32,25.34,1.15,37.09-.01l81.45,217.07h-34.99l-21.1-61.9-87.42-.18-23.46,62.07h-33.99ZM1236.05,191.09h68.99l-35.48-99.01-33.5,99.01Z"/>
  <path d="M1081.08,279.09h-32.99v-27l-6,10.5c-28.61,36.34-104.54,22.06-100.02-31.03,4.04-47.45,65.67-37.7,94.54-50.44,17.25-7.62,13.54-29.18-3.55-35.5-21.16-7.82-47.75-.7-52.97,23.48h-30.99c5.28-26.73,26.73-48.51,54.51-50.98,50.45-4.5,73.26,15.81,75.51,65.44,1.44,31.77-2.52,64.01,1.96,95.54ZM1048.09,216.59c1-8.89-.74-19.42,0-28.5l-6.97,9.52c-16.43,16.16-70.9,8.28-68.06,40.03,1.72,19.24,26.86,22.44,42.07,18.98,18.94-4.31,30.83-21.19,32.96-40.03Z"/>
  <path d="M812.63,122.09l46.5,125,41.98-125h32.99c-2.3,9.28-5.97,18.28-9.25,27.25-21.04,57.64-42.8,115.34-65.92,172.07-4.35,7.68-17.43,17.68-26.32,17.68h-31.49v-25h21.5c2.97,0,10.05-5.43,11.93-8.07,2.17-3.04,9.66-21.09,9.36-24.2l-63.79-159.74h32.49Z"/>
  <path d="M655.16,122.09v98.5c0,3.09,1.76,11.97,2.72,15.28,7.06,24.33,39.25,25.78,54.78,9.23,6.08-6.48,14.49-24.82,14.49-33.51v-89.5h31.99v157h-30.99v-28l-8.02,12.48c-28.35,35.45-90.64,19.45-94.69-27.25-2.77-37.9-.57-76.19-1.27-114.23h30.99Z"/>
  <path d="M221.89,156.74c-5.37,5.45-12.08,10.39-17.15,16.33l-61.21-53.5c26.45-25.76,50.49-54.18,70.12-85.57,6.64-10.62,12.09-21.84,18.36-32.64.48-.83-.29-1.66,1.7-1.27,2.39.96,11.44,15.49,13.32,18.68,32.15,54.63,16.3,95.92-25.15,137.96Z"/>
  <path d="M18.26,361.09l-2.05-.61c-26.81-57.83,4.68-121.14,48.55-160.2l61.48,51.32c-21.13,19.15-43.36,37.29-63.98,56.99-16.34,15.61-34.17,31.91-44,52.51Z"/>
  <rect x="1398.02" y="62.09" width="32.99" height="217"/>
</svg>